{"title":"Marnie(1964)MP-4[DaScubaDude]","uid":12976654,"size":1313582045,"categoryP":"video","categoryS":"movies","magnet":"?xt=urn:btih:43e1bd2fc1928a8cc38c2fb7e30ac78651a69ea8&amp;dn=Marnie%281964%29MP-4%5BDaScubaDude%5D&amp;tr=udp%3A%2F%2Ftracker.leechers-paradise.org%3A6969&amp;tr=udp%3A%2F%2Fzer0day.ch%3A1337&amp;tr=udp%3A%2F%2Fopen.demonii.com%3A1337&amp;tr=udp%3A%2F%2Ftracker.coppersurfer.tk%3A6969&amp;tr=udp%3A%2F%2Fexodus.desync.com%3A6969","seeders":1,"leechers":0,"uploader":"dascuba","files":1,"time":1449987792,"description":"Mark marries Marnie although she is a habitual thief and has serious psychological problems, and tries to help her confront and resolve them.\r\nDirector: Alfred Hitchcock\r\nWriters: Winston Graham (from the novel by), Jay Presson Allen (screenplay)\r\nStars: Tippi Hedren, Sean Connery, Martin Gabel |\r\n\r\nGeneral\r\nComplete name                            :MarnieMARNIE_Title1.mp4\r\nFormat                                   : MPEG-4\r\nFormat profile                           : Base Media\r\nCodec ID                                 : isom\r\nFile size                                : 1.22 GiB\r\nDuration                                 : 2h 10mn\r\nOverall bit rate                         : 1 343 Kbps\r\nMovie name                               : MARNIE\r\nGenre                                    : Mystery\r\nWriting application                      : Lavf54.6.100\r\n\r\nVideo\r\nID                                       : 1\r\nFormat                                   : AVC\r\nFormat/Info                              : Advanced Video Codec\r\nFormat profile                           :   \r\nFormat settings, CABAC                   : No\r\nFormat settings, ReFrames                : 6 frames\r\nCodec ID                                 : avc1\r\nCodec ID/Info                            : Advanced Video Coding\r\nDuration                                 : 2h 10mn\r\nBit rate                                 : 1 202 Kbps\r\nWidth                                    : 720 pixels\r\nHeight                                   : 404 pixels\r\nDisplay aspect ratio                     : 16:9\r\nFrame rate mode                          : Constant\r\nFrame rate                               : 29.970 fps\r\nColor space                              : YUV\r\nChroma subsampling                       : 4:2:0\r\nBit depth                                : 8 bits\r\nScan type                                : Progressive\r\nBits/(Pixel*Frame)                       : 0.138\r\nStream size                              : 1.09 GiB (89%)\r\n\r\nAudio\r\nID                                       : 2\r\nFormat                                   : AAC\r\nFormat/Info                              : Advanced Audio Codec\r\nFormat profile                           : LC\r\nCodec ID                                 : 40\r\nDuration                                 : 2h 10mn\r\nBit rate mode                            : Constant\r\nBit rate                                 : 132 Kbps\r\nChannel(s)                               : 2 channels\r\nChannel positions                        : Front: L R\r\nSampling rate                            : 44.1 KHz\r\nCompression mode                         : Lossy\r\nStream size                              : 126 MiB (10%)","torrent":{"xt":"urn:btih:43e1bd2fc1928a8cc38c2fb7e30ac78651a69ea8","amp;dn":"Marnie%281964%29MP-4%5BDaScubaDude%5D","amp;tr":["udp%3A%2F%2Ftracker.leechers-paradise.org%3A6969","udp%3A%2F%2Fzer0day.ch%3A1337","udp%3A%2F%2Fopen.demonii.com%3A1337","udp%3A%2F%2Ftracker.coppersurfer.tk%3A6969","udp%3A%2F%2Fexodus.desync.com%3A6969"],"infoHash":"43e1bd2fc1928a8cc38c2fb7e30ac78651a69ea8","infoHashBuffer":{"type":"Buffer","data":[67,225,189,47,193,146,138,140,195,140,47,183,227,10,199,134,81,166,158,168]},"announce":[],"urlList":[]}}